<?xml version="1.0" encoding="UTF-8"?>
<!DOCTYPE svg PUBLIC "-//W3C//DTD SVG 1.1//EN" "http://www.w3.org/Graphics/SVG/1.1/DTD/svg11.dtd">
<svg xmlns="http://www.w3.org/2000/svg" version="1.1" width="64px" height="64px" style="shape-rendering:geometricPrecision; text-rendering:geometricPrecision; image-rendering:optimizeQuality; fill-rule:evenodd; clip-rule:evenodd" xmlns:xlink="http://www.w3.org/1999/xlink">
<g><path style="opacity:0.999" fill="#151515" d="M 24.5,-0.5 C 29.5,-0.5 34.5,-0.5 39.5,-0.5C 51.1667,3.83333 59.1667,11.8333 63.5,23.5C 63.5,28.8333 63.5,34.1667 63.5,39.5C 59.1667,51.1667 51.1667,59.1667 39.5,63.5C 34.5,63.5 29.5,63.5 24.5,63.5C 11.842,59.5087 3.50868,51.1753 -0.5,38.5C -0.5,33.8333 -0.5,29.1667 -0.5,24.5C 3.5,11.8333 11.8333,3.5 24.5,-0.5 Z"/></g>
<g><path style="opacity:1" fill="#e1e8e8" d="M 25.5,4.5 C 48.3101,3.80957 59.1435,14.8096 58,37.5C 49.3496,58.0833 35.1829,63.2499 15.5,53C 0.536143,38.0004 0.869476,23.3338 16.5,9C 19.5919,7.45406 22.5919,5.95406 25.5,4.5 Z"/></g>
<g><path style="opacity:1" fill="#13a5dd" d="M 26.5,6.5 C 46.9869,6.15277 56.8202,16.1528 56,36.5C 48.5085,55.1676 35.6751,60.3342 17.5,52C 2.90407,38.315 2.90407,24.6483 17.5,11C 20.4375,9.19914 23.4375,7.69914 26.5,6.5 Z"/></g>
<g><path style="opacity:1" fill="#effafb" d="M 17.5,24.5 C 19.4228,28.0293 20.0894,32.0293 19.5,36.5C 19.5,37.8333 18.8333,38.5 17.5,38.5C 16.8826,38.3893 16.3826,38.056 16,37.5C 15.3333,33.5 15.3333,29.5 16,25.5C 16.3826,24.944 16.8826,24.6107 17.5,24.5 Z"/></g>
<g><path style="opacity:1" fill="#f9fdfd" d="M 39.5,24.5 C 40.4959,24.4142 41.3292,24.7476 42,25.5C 42.7684,29.9196 42.6018,34.2529 41.5,38.5C 39.5636,34.2853 38.8969,29.6186 39.5,24.5 Z"/></g>
<g><path style="opacity:1" fill="#effbfa" d="M 45.5,26.5 C 46.7868,27.8714 47.4535,29.7047 47.5,32C 47.1667,33.8333 46.8333,35.6667 46.5,37.5C 45.4697,35.4827 44.4697,33.4827 43.5,31.5C 44.5471,29.9436 45.2137,28.2769 45.5,26.5 Z"/></g>
<g><path style="opacity:1" fill="#4ac2df" d="M 38.5,24.5 C 38.8333,24.5 39.1667,24.5 39.5,24.5C 38.8969,29.6186 39.5636,34.2853 41.5,38.5C 40.791,39.404 39.791,39.7373 38.5,39.5C 38.5,38.5 38.5,37.5 38.5,36.5C 32.1667,36.5 25.8333,36.5 19.5,36.5C 20.0894,32.0293 19.4228,28.0293 17.5,24.5C 22.3489,23.8335 27.3489,23.1668 32.5,22.5C 29.8953,20.5839 30.3953,19.5839 34,19.5C 37.6047,19.5839 38.1047,20.5839 35.5,22.5C 36.6016,23.1757 37.6016,23.8423 38.5,24.5 Z"/></g>
<g><path style="opacity:1" fill="#fefffe" d="M 38.5,24.5 C 35.9134,25.8164 32.9134,26.483 29.5,26.5C 26.5,26.1667 23.5,25.8333 20.5,25.5C 26.4632,24.5041 32.4632,24.1707 38.5,24.5 Z"/></g>
<g><path style="opacity:1" fill="#9de2ec" d="M 19.5,36.5 C 25.8333,36.5 32.1667,36.5 38.5,36.5C 38.5,37.5 38.5,38.5 38.5,39.5C 37.391,39.5569 36.391,39.8902 35.5,40.5C 32.3157,38.5864 28.649,37.9197 24.5,38.5C 24.7373,39.791 24.404,40.791 23.5,41.5C 21.8439,39.9397 19.8439,38.9397 17.5,38.5C 18.8333,38.5 19.5,37.8333 19.5,36.5 Z"/></g>
<g><path style="opacity:1" fill="#ecf9fb" d="M 35.5,40.5 C 36.3643,44.1105 35.6977,44.2771 33.5,41C 29.6106,39.9721 26.2773,40.8054 23.5,43.5C 22.537,43.0302 22.537,42.3635 23.5,41.5C 24.404,40.791 24.7373,39.791 24.5,38.5C 28.649,37.9197 32.3157,38.5864 35.5,40.5 Z"/></g>
</svg>
